PathFileType	4	(X/Y/Z)	/Users/itak/Documents/Research/Walk-IL/dataset/trc/00063_00006.trc
DataRate	CameraRate	NumFrames	NumMarkers	Units	OrigDataRate	OrigDataStartFrame	OrigNumFrames
100.000000	100.000000	4	53	mm	100.000000	522	697
Frame#	Time	RPSI			LPSI			L3			STRN			T10			C7			CLAV			RBAK			LBAK			LSHO			LUPA			LAEL			LAOL			LWTS			LWPS			LFRA			LIFD			LHPS			LHTS			RSHO			RUPA			RAEL			RAOL			RWTS			RWPS			RFRA			RIFD			RHTS			RHPS			RBHD			LFHD			RFHD			LBHD			LHIP			RHIP			RASI			LASI			LKNE			LTHI			LANK			LTIP			LTOE			LMT1			LMT5			LHEE			RKNE			RTHI			RANK			RTIP			RTOE			RMT1			RMT5			RHEE			
		X1	Y1	Z1	X2	Y2	Z2	X3	Y3	Z3	X4	Y4	Z4	X5	Y5	Z5	X6	Y6	Z6	X7	Y7	Z7	X8	Y8	Z8	X9	Y9	Z9	X10	Y10	Z10	X11	Y11	Z11	X12	Y12	Z12	X13	Y13	Z13	X14	Y14	Z14	X15	Y15	Z15	X16	Y16	Z16	X17	Y17	Z17	X18	Y18	Z18	X19	Y19	Z19	X20	Y20	Z20	X21	Y21	Z21	X22	Y22	Z22	X23	Y23	Z23	X24	Y24	Z24	X25	Y25	Z25	X26	Y26	Z26	X27	Y27	Z27	X28	Y28	Z28	X29	Y29	Z29	X30	Y30	Z30	X31	Y31	Z31	X32	Y32	Z32	X33	Y33	Z33	X34	Y34	Z34	X35	Y35	Z35	X36	Y36	Z36	X37	Y37	Z37	X38	Y38	Z38	X39	Y39	Z39	X40	Y40	Z40	X41	Y41	Z41	X42	Y42	Z42	X43	Y43	Z43	X44	Y44	Z44	X45	Y45	Z45	X46	Y46	Z46	X47	Y47	Z47	X48	Y48	Z48	X49	Y49	Z49	X50	Y50	Z50	X51	Y51	Z51	X52	Y52	Z52	X53	Y53	Z53	

523	5.22	-618.7440795898438	1038.13671875	30.07932662963867	-449.9248657226562	1018.049499511719	65.57096862792969	-534.8812866210938	1086.84765625	50.34959030151367	-620.4187622070312	1281.052124023438	300.0167236328125	-536.1343383789062	1221.375366210938	41.82319641113281	-562.9273681640625	1485.709350585938	102.6813354492188	-612.7017822265625	1396.223022460938	272.7713317871094	-610.87939453125	1346.833740234375	20.74700164794922	-460.0516662597656	1453.170166015625	108.2412872314453	-419.4826965332031	1456.239868164062	226.7062377929688	-329.4423522949219	1339.843383789062	222.3071441650391	-282.6384887695312	1131.298461914062	234.0216369628906	-351.1072692871094	1111.097534179688	154.7962799072266	-335.4999389648438	883.82568359375	307.4776000976562	-265.0935974121094	880.5805053710938	261.4822082519531	-265.9361267089844	1022.685668945312	253.6174468994141	-339.8517456054688	697.3328247070312	308.3227844238281	-267.8853454589844	797.7035522460938	290.5226440429688	-328.6708374023438	800.3582763671875	327.0733947753906	-745.6240844726562	1447.186279296875	110.9571533203125	-802.3656616210938	1383.31787109375	77.89267730712891	-854.1077880859375	1131.18115234375	20.69441986083984	-771.8726806640625	1096.953491210938	66.07013702392578	-895.2286987304688	880.7612915039062	166.6260681152344	-918.524169921875	869.2025146484375	82.44995880126953	-876.8046875	1051.373657226562	27.99161148071289	-892.4055786132812	687.8248291015625	165.9326019287109	-910.554443359375	775.0868530273438	181.4245758056641	-937.5951538085938	779.3900756835938	109.4931259155273	-542.748291015625	1652.810546875	120.837516784668	-648.9133911132812	1705.401977539062	302.2828674316406	-523.5401611328125	1701.833740234375	292.0065307617188	-679.935546875	1650.737670898438	141.9617919921875	-390.7820434570312	961.2179565429688	193.3215789794922	-711.281494140625	967.014404296875	66.200439453125	-733.0496215820312	980.1629028320312	191.4257354736328	-481.0157470703125	971.3094482421875	278.97607421875	-488.3579711914062	552.2506103515625	437.51220703125	-431.590576171875	672.1187133789062	353.5794372558594	-520.5154418945312	98.77524566650391	250.7314300537109	-491.3421936035156	307.1920166015625	332.5981140136719	-545.3500366210938	83.16945648193359	449.5128479003906	-592.7752685546875	84.69123840332031	398.1580810546875	-491.474853515625	77.53078460693359	352.7444152832031	-592.4634399414062	112.7008972167969	194.9858703613281	-727.60986328125	523.5830688476562	143.3470153808594	-746.206787109375	795.5634155273438	144.7318725585938	-690.27294921875	38.13115310668945	38.35393524169922	-725.55419921875	400.05859375	114.8435897827148	-731.2367553710938	46.04402923583984	252.7914123535156	-672.6835327148438	56.43915176391602	210.0276947021484	-748.4190063476562	41.53662109375	148.1359558105469	-621.384765625	48.50171661376953	13.96057605743408	
524	5.23	-622.1957397460938	1037.763549804688	36.85870361328125	-453.026123046875	1017.701416015625	70.66201782226562	-538.1658325195312	1086.359252929688	56.29307556152344	-621.0584716796875	1280.426879882812	307.0204772949219	-539.5687255859375	1220.8564453125	47.80548477172852	-565.4472045898438	1485.181274414062	109.1985931396484	-613.463134765625	1395.625244140625	279.7454528808594	-614.4763793945312	1346.372802734375	27.68592834472656	-462.5874328613281	1452.548217773438	113.5529479980469	-420.6753234863281	1455.47412109375	231.5280151367188	-330.8223266601562	1338.98046875	225.8463439941406	-284.0878295898438	1130.430786132812	236.3385009765625	-353.9480285644531	1110.357055664062	158.2548065185547	-335.491455078125	882.65771484375	310.0822448730469	-265.8723449707031	879.6946411132812	262.93017578125	-266.9959716796875	1021.797180175781	255.4010009765625	-339.5095825195312	696.2282104492188	310.5264282226562	-268.068603515625	796.7025756835938	291.7796936035156	-328.1345825195312	799.193603515625	329.4180908203125	-748.1039428710938	1446.787475585938	119.4330749511719	-805.2958374023438	1382.932495117188	86.98273468017578	-857.7469482421875	1130.453369140625	31.01827049255371	-775.0467529296875	1096.347412109375	75.63421630859375	-897.2383422851562	880.7815551757812	178.6950225830078	-921.742919921875	868.8453369140625	94.90435791015625	-880.42529296875	1050.66357421875	38.91598892211914	-894.7243041992188	687.8272094726562	178.8639526367188	-912.4678344726562	775.1928100585938	194.2436828613281	-940.5482788085938	779.1741333007812	122.7297439575195	-544.830078125	1652.314453125	127.2521286010742	-649.510498046875	1704.807250976562	309.5703735351562	-524.2058715820312	1701.3232421875	298.3032531738281	-681.8128051757812	1650.146118164062	149.5394897460938	-392.7276916503906	960.7179565429688	197.8065032958984	-714.2893676757812	966.5695190429688	73.84540557861328	-734.6530151367188	979.4642944335938	199.0638275146484	-481.8713989257812	970.648193359375	284.302490234375	-487.7943725585938	551.8193359375	441.7002868652344	-430.9778442382812	671.0202026367188	357.2877807617188	-522.8048095703125	91.57191467285156	275.7939147949219	-492.20458984375	303.5289916992188	347.5890197753906	-546.2274780273438	84.83847808837891	475.2349548339844	-594.0263671875	84.15224456787109	424.2305908203125	-493.0838623046875	74.73375701904297	378.4325561523438	-595.1680297851562	103.2077255249023	220.0571136474609	-728.358642578125	522.8574829101562	147.1158599853516	-747.9130249023438	794.6524658203125	151.2981414794922	-690.0205078125	38.34119415283203	38.53384017944336	-726.0042114257812	399.6424865722656	117.5607147216797	-730.9988403320312	45.74928283691406	252.9964294433594	-672.6281127929688	56.12664413452148	210.1731109619141	-748.2320556640625	41.58194351196289	148.3030242919922	-621.224853515625	48.72432327270508	14.11159420013428	
525	5.24	-625.5316772460938	1037.287353515625	43.71744918823242	-456.0382690429688	1017.228759765625	75.82472991943359	-541.3447265625	1085.7568359375	62.31639099121094	-621.5712890625	1279.723999023438	314.0815734863281	-542.8495483398438	1220.2265625	53.88001251220703	-567.79833984375	1484.546264648438	115.7782135009766	-614.088623046875	1394.945922851562	286.77001953125	-617.9009399414062	1345.802978515625	34.6940803527832	-464.9556579589844	1451.818359375	118.9408416748047	-421.7220458984375	1454.607543945312	236.4128723144531	-332.1105041503906	1337.995849609375	229.4949035644531	-285.5288391113281	1129.421752929688	238.8193054199219	-356.7531433105469	1109.480590820312	161.8907165527344	-335.5569152832031	881.3705444335938	312.8449096679688	-266.7386474609375	878.6597900390625	264.5439453125	-268.11328125	1020.761901855469	257.3407592773438	-339.3760070800781	695.0020141601562	312.86767578125	-268.4048767089844	795.5468139648438	293.180419921875	-327.7479858398438	797.903076171875	331.9026489257812	-750.3923950195312	1446.291015625	127.9525680541992	-808.0288696289062	1382.4501953125	96.11474609375	-861.1480102539062	1129.649291992188	41.34855270385742	-778.0599975585938	1095.62939453125	85.23690032958984	-898.910888671875	880.7090454101562	190.7571716308594	-924.6289672851562	868.40234375	107.3544006347656	-883.7975463867188	1049.866577148438	49.84026336669922	-896.6486206054688	687.7453002929688	191.7481689453125	-914.0264892578125	775.2036743164062	207.0219421386719	-943.1298828125	778.8598022460938	135.9495239257812	-546.7572631835938	1651.7255859375	133.7323455810547	-649.9683837890625	1704.10009765625	316.8849487304688	-524.7409057617188	1700.71142578125	304.6393737792969	-683.5147705078125	1649.456665039062	157.1375122070312	-394.6067199707031	960.053955078125	202.3516082763672	-717.1954956054688	966.033203125	81.54264068603516	-736.1565551757812	978.643798828125	206.7238464355469	-482.6341552734375	969.8863525390625	289.7167053222656	-487.5050964355469	551.041015625	445.5326538085938	-430.4870300292969	669.6210327148438	360.8154296875	-524.2076416015625	84.98870086669922	300.9270324707031	-492.7665100097656	300.0587158203125	362.5494689941406	-546.7715454101562	86.97759246826172	500.5388488769531	-594.7892456054688	84.08383178710938	449.8447265625	-494.0747680664062	72.53929138183594	404.0552368164062	-596.8206787109375	94.30303192138672	245.1099548339844	-729.0265502929688	522.0762329101562	150.992431640625	-749.61083984375	793.7496948242188	158.037353515625	-689.7644653320312	38.5455436706543	38.71606063842773	-726.4100341796875	399.1765441894531	120.3764114379883	-730.7162475585938	45.47178268432617	253.1811981201172	-672.5735473632812	55.80368041992188	210.2990875244141	-748.0603637695312	41.63944625854492	148.4580841064453	-621.068115234375	48.92873001098633	14.25226497650146	
526	5.25	-628.7401733398438	1036.70751953125	50.64966583251953	-458.9508056640625	1016.626647949219	81.07481384277344	-544.4078979492188	1085.038940429688	68.42564392089844	-621.935302734375	1278.939331054688	321.1856994628906	-545.9696655273438	1219.483032226562	60.04397583007812	-569.9913940429688	1483.802612304688	122.4169464111328	-614.5704345703125	1394.180297851562	293.8426513671875	-621.1565551757812	1345.122192382812	41.77540588378906	-467.1560974121094	1450.977416992188	124.4034423828125	-422.6156921386719	1453.6328125	241.3594055175781	-333.3003845214844	1336.888427734375	233.2451477050781	-286.9411010742188	1128.271362304688	241.4647521972656	-359.4974060058594	1108.4599609375	165.6994781494141	-335.6952209472656	879.97021484375	315.7745361328125	-267.6812133789062	877.4769897460938	266.3496704101562	-269.2653198242188	1019.578796386719	259.4501342773438	-339.4573364257812	693.65771484375	315.3562622070312	-268.8861389160156	794.24365234375	294.7549438476562	-327.5165100097656	796.4853515625	334.5282287597656	-752.4962158203125	1445.691162109375	136.5244140625	-810.5709838867188	1381.867553710938	105.3003540039062	-864.3309326171875	1128.767944335938	51.6824836730957	-780.9505615234375	1094.784790039062	94.88288116455078	-900.2689208984375	880.5503540039062	202.8123779296875	-927.1868896484375	867.8676147460938	119.8012542724609	-886.9342651367188	1048.98095703125	60.7662353515625	-898.175048828125	687.5840454101562	204.607666015625	-915.2399291992188	775.125	219.7720336914062	-945.344970703125	778.4495849609375	149.1537017822266	-548.5300903320312	1651.03125	140.2834167480469	-650.2841186523438	1703.28076171875	324.2313232421875	-525.144775390625	1699.996459960938	311.0112915039062	-685.0481567382812	1648.66064453125	164.7652130126953	-396.3986206054688	959.2283325195312	206.9704742431641	-719.9955444335938	965.40869140625	89.29444122314453	-737.5703735351562	977.7225341796875	214.4545745849609	-483.3031616210938	969.019775390625	295.2339477539062	-487.4738464355469	549.9356079101562	449.0417785644531	-430.1454467773438	667.9329833984375	364.1813659667969	-524.7667846679688	79.10374450683594	326.0301513671875	-493.0487976074219	296.8391723632812	377.4278869628906	-546.917236328125	89.64633941650391	525.3668823242188	-595.0264892578125	84.53034973144531	474.9701232910156	-494.4349365234375	71.03616333007812	429.5105895996094	-597.501953125	86.03877258300781	270.0721130371094	-729.6323852539062	521.2435302734375	154.9785003662109	-751.2615356445312	792.8228149414062	164.8861541748047	-689.516845703125	38.74360275268555	38.89608001708984	-726.7879028320312	398.669677734375	123.2798233032227	-730.3975830078125	45.21130752563477	253.3454742431641	-672.5059204101562	55.47128677368164	210.4169616699219	-747.9124145507812	41.70822906494141	148.5967864990234	-620.91943359375	49.12210845947266	14.38187694549561	
